<svg width="25" height="18" viewBox="0 0 25 18" fill="none" xmlns="http://www.w3.org/2000/svg">
<path fill-rule="evenodd" clip-rule="evenodd" d="M8.75 9.20459C11.1625 9.20459 13.125 7.24209 13.125 4.82959C13.125 2.41709 11.1625 0.45459 8.75 0.45459C6.3375 0.45459 4.375 2.41709 4.375 4.82959C4.375 7.24209 6.3375 9.20459 8.75 9.20459ZM8.75 2.95459C9.7875 2.95459 10.625 3.79209 10.625 4.82959C10.625 5.86709 9.7875 6.70459 8.75 6.70459C7.7125 6.70459 6.875 5.86709 6.875 4.82959C6.875 3.79209 7.7125 2.95459 8.75 2.95459ZM3.4625 15.4546H8.8125C8.775 15.6546 8.75 15.8671 8.75 16.0796V17.9546H0V16.0796C0 13.1671 5.825 11.7046 8.75 11.7046C9.45 11.7046 10.3125 11.7921 11.225 11.9546C10.3375 12.5546 9.6 13.3046 9.175 14.2171C9.10627 14.2171 9.03442 14.214 8.96257 14.2108L8.9625 14.2108C8.89062 14.2077 8.81875 14.2046 8.75 14.2046C6.8375 14.2046 4.7 14.8296 3.4625 15.4546ZM18.125 12.3296C15.825 12.3296 11.25 13.5921 11.25 16.0796V17.9546H25V16.0796C25 13.5921 20.425 12.3296 18.125 12.3296ZM21.25 7.32959C21.25 8.50459 20.5875 9.51709 19.6375 10.0546C19.1875 10.3046 18.675 10.4546 18.125 10.4546C17.575 10.4546 17.0625 10.3046 16.6125 10.0546C15.6625 9.51709 15 8.50459 15 7.32959C15 5.60459 16.4 4.20459 18.125 4.20459C19.85 4.20459 21.25 5.60459 21.25 7.32959Z" fill="#9DA1A7"/>
</svg>
