<svg width="11" height="11" viewBox="0 0 11 11" fill="none" xmlns="http://www.w3.org/2000/svg">
<path fill-rule="evenodd" clip-rule="evenodd" d="M7.93945 0C8.29951 0 8.64466 0.143761 8.89674 0.397828L10.602 2.10309C10.8559 2.35698 10.9985 2.70132 10.9985 3.06037C10.9985 3.41943 10.8559 3.76377 10.602 4.01766L4.37603 10.2417C3.99192 10.6848 3.44742 10.957 2.82364 10.9998H0V10.4498L0.00178596 8.1319C0.0486344 7.55202 0.318223 7.01282 0.729473 6.65047L6.98151 0.398491C7.23502 0.143437 7.5798 0 7.93945 0ZM2.78477 9.90149C3.07855 9.88069 3.35202 9.74396 3.57161 9.49278L7.7301 5.33429L5.66548 3.26958L1.48262 7.45144C1.25981 7.6485 1.12198 7.92418 1.09981 8.17638V9.90045L2.78477 9.90149ZM6.44328 2.49196L8.50782 4.55657L9.82425 3.24014C9.87188 3.19251 9.89863 3.12792 9.89863 3.06056C9.89863 2.99321 9.87188 2.92862 9.82425 2.88099L8.11747 1.1742C8.07037 1.12674 8.00628 1.10004 7.93942 1.10004C7.87255 1.10004 7.80846 1.12674 7.76136 1.1742L6.44328 2.49196Z" fill="white"/>
</svg>
